<svg width="64" height="64" viewBox="0 0 64 64" fill="none" xmlns="http://www.w3.org/2000/svg">
<path d="M31.9968 0C29.4683 0 27.4255 1.7875 27.4255 4V6.4C16.997 8.25 9.14 16.325 9.14 26V28.35C9.14 34.225 6.66861 39.9 2.21152 44.3L1.15439 45.3375C-0.045591 46.5125 -0.331302 48.2 0.39726 49.6375C1.12582 51.075 2.76866 52 4.56863 52H59.4251C61.225 52 62.8536 51.075 63.5964 49.6375C64.3393 48.2 64.0393 46.5125 62.8393 45.3375L61.7822 44.3C57.3251 39.9 54.8537 34.2375 54.8537 28.35V26C54.8537 16.325 46.9966 8.25 36.5682 6.4V4C36.5682 1.7875 34.5254 0 31.9968 0ZM38.4682 61.6625C40.1825 60.1625 41.1396 58.125 41.1396 56H31.9968H22.8541C22.8541 58.125 23.8112 60.1625 25.5255 61.6625C27.2398 63.1625 29.5683 64 31.9968 64C34.4254 64 36.7539 63.1625 38.4682 61.6625Z" fill="black"/>
</svg>
